HIERARCHY
ROOT hip
{
  OFFSET 0.00112043 5.09927 -9.65472
  CHANNELS 6 Xposition Yposition Zposition Zrotation Xrotation Yrotation
  JOINT abdomen
  {
    OFFSET 0 -1.186 -1.5018
    CHANNELS 3 Zrotation Xrotation Yrotation
    JOINT abdomen2
    {
      OFFSET 0 9.964 0.2134
      CHANNELS 3 Zrotation Xrotation Yrotation
      JOINT chest
      {
        OFFSET 0 13.134 -3.2573
        CHANNELS 3 Zrotation Xrotation Yrotation
        JOINT neck
        {
          OFFSET 0 20.686 -1.6905
          CHANNELS 3 Zrotation Xrotation Yrotation
          JOINT head
          {
            OFFSET 0 7.238 -0.1237
            CHANNELS 3 Zrotation Xrotation Yrotation
            End Site
            {
              OFFSET 0 0 0
            }
          }
        }
        JOINT lCollar
        {
          OFFSET 1.7069 20.075 5.0056
          CHANNELS 3 Zrotation Xrotation Yrotation
          JOINT lShldr
          {
            OFFSET 13.6458 -0.047 -4.849
            CHANNELS 3 Zrotation Xrotation Yrotation
            JOINT lForeArm
            {
              OFFSET 28.3255 -0.9759 2.2888
              CHANNELS 3 Zrotation Xrotation Yrotation
              JOINT lHand
              {
                OFFSET 22.1583 -0.53 10.8316
                CHANNELS 3 Zrotation Xrotation Yrotation
                JOINT lThumb1
                {
                  OFFSET 0.786 0.112 2.5817
                  CHANNELS 3 Zrotation Xrotation Yrotation
                  JOINT lThumb2
                  {
                    OFFSET 0.3601 -0.878 4.2331
                    CHANNELS 3 Zrotation Xrotation Yrotation
                    JOINT lThumb2_End
                    {
                      OFFSET 1.8127 -1.216 2.2227
                      CHANNELS 3 Zrotation Xrotation Yrotation
                      End Site
                      {
                        OFFSET 0.0181 -0.0122 0.0222
                      }
                    }
                  }
                }
                JOINT lCarpal1
                {
                  OFFSET 0.9571 1.114 1.7695
                  CHANNELS 3 Zrotation Xrotation Yrotation
                  JOINT lIndex1
                  {
                    OFFSET 4.1246 0.487 4.1451
                    CHANNELS 3 Zrotation Xrotation Yrotation
                    JOINT lIndex2
                    {
                      OFFSET 3.4052 -1.454 2.7682
                      CHANNELS 3 Zrotation Xrotation Yrotation
                      JOINT lIndex2_End
                      {
                        OFFSET 1.4531 -1.795 1.2713
                        CHANNELS 3 Zrotation Xrotation Yrotation
                        End Site
                        {
                          OFFSET 0.0145 -0.0179 0.0127
                        }
                      }
                    }
                  }
                  JOINT lMid1
                  {
                    OFFSET 5.6954 0.21 2.1184
                    CHANNELS 3 Zrotation Xrotation Yrotation
                    JOINT lMid2
                    {
                      OFFSET 3.9766 -1.54 2.3863
                      CHANNELS 3 Zrotation Xrotation Yrotation
                      JOINT lMid2_End
                      {
                        OFFSET 1.4042 -1.926 1.125
                        CHANNELS 3 Zrotation Xrotation Yrotation
                        End Site
                        {
                          OFFSET 0.014 -0.0193 0.0113
                        }
                      }
                    }
                  }
                }
                JOINT lCarpal2
                {
                  OFFSET 2.0956 0.66 -0.3894
                  CHANNELS 3 Zrotation Xrotation Yrotation
                  JOINT lRing1
                  {
                    OFFSET 5.0395 -0.09 2.4971
                    CHANNELS 3 Zrotation Xrotation Yrotation
                    JOINT lRing2
                    {
                      OFFSET 3.7921 -1.552 1.4806
                      CHANNELS 3 Zrotation Xrotation Yrotation
                      JOINT lRing2_End
                      {
                        OFFSET 1.4655 -1.808 0.9609
                        CHANNELS 3 Zrotation Xrotation Yrotation
                        End Site
                        {
                          OFFSET 0.0147 -0.0181 0.0096
                        }
                      }
                    }
                  }
                  JOINT lPinky1
                  {
                    OFFSET 4.9141 -1.269 0.3591
                    CHANNELS 3 Zrotation Xrotation Yrotation
                    JOINT lPinky2
                    {
                      OFFSET 3.1477 -1.685 0.8462
                      CHANNELS 3 Zrotation Xrotation Yrotation
                      JOINT lPinky2_End
                      {
                        OFFSET 0.8055 -1.585 0.7955
                        CHANNELS 3 Zrotation Xrotation Yrotation
                        End Site
                        {
                          OFFSET 0.0081 -0.0158 0.008
                        }
                      }
                    }
                  }
                }
              }
            }
          }
        }
        JOINT rCollar
        {
          OFFSET -1.7069 20.075 5.0056
          CHANNELS 3 Zrotation Xrotation Yrotation
          JOINT rShldr
          {
            OFFSET -13.6458 -0.047 -4.849
            CHANNELS 3 Zrotation Xrotation Yrotation
            JOINT rForeArm
            {
              OFFSET -28.3255 -0.9759 2.2888
              CHANNELS 3 Zrotation Xrotation Yrotation
              JOINT rHand
              {
                OFFSET -22.1583 -0.53 10.8316
                CHANNELS 3 Zrotation Xrotation Yrotation
                JOINT rThumb1
                {
                  OFFSET -0.786 0.112 2.5817
                  CHANNELS 3 Zrotation Xrotation Yrotation
                  JOINT rThumb2
                  {
                    OFFSET -0.3601 -0.878 4.2331
                    CHANNELS 3 Zrotation Xrotation Yrotation
                    JOINT rThumb2_End
                    {
                      OFFSET -1.8127 -1.216 2.2227
                      CHANNELS 3 Zrotation Xrotation Yrotation
                      End Site
                      {
                        OFFSET -0.0181 -0.0122 0.0222
                      }
                    }
                  }
                }
                JOINT rCarpal1
                {
                  OFFSET -0.9571 1.114 1.7695
                  CHANNELS 3 Zrotation Xrotation Yrotation
                  JOINT rIndex1
                  {
                    OFFSET -4.1246 0.487 4.1451
                    CHANNELS 3 Zrotation Xrotation Yrotation
                    JOINT rIndex2
                    {
                      OFFSET -3.4052 -1.454 2.7682
                      CHANNELS 3 Zrotation Xrotation Yrotation
                      JOINT rIndex2_End
                      {
                        OFFSET -1.4531 -1.795 1.2713
                        CHANNELS 3 Zrotation Xrotation Yrotation
                        End Site
                        {
                          OFFSET -0.0145 -0.018 0.0127
                        }
                      }
                    }
                  }
                  JOINT rMid1
                  {
                    OFFSET -5.6954 0.21 2.1184
                    CHANNELS 3 Zrotation Xrotation Yrotation
                    JOINT rMid2
                    {
                      OFFSET -3.9766 -1.54 2.3863
                      CHANNELS 3 Zrotation Xrotation Yrotation
                      JOINT rMid2_End
                      {
                        OFFSET -1.4042 -1.926 1.125
                        CHANNELS 3 Zrotation Xrotation Yrotation
                        End Site
                        {
                          OFFSET -0.014 -0.0193 0.0113
                        }
                      }
                    }
                  }
                }
                JOINT rCarpal2
                {
                  OFFSET -2.0956 0.66 -0.3894
                  CHANNELS 3 Zrotation Xrotation Yrotation
                  JOINT rRing1
                  {
                    OFFSET -5.0395 -0.09 2.4971
                    CHANNELS 3 Zrotation Xrotation Yrotation
                    JOINT rRing2
                    {
                      OFFSET -3.7921 -1.552 1.4806
                      CHANNELS 3 Zrotation Xrotation Yrotation
                      JOINT rRing2_End
                      {
                        OFFSET -1.4655 -1.808 0.9609
                        CHANNELS 3 Zrotation Xrotation Yrotation
                        End Site
                        {
                          OFFSET -0.0147 -0.0181 0.0096
                        }
                      }
                    }
                  }
                  JOINT rPinky1
                  {
                    OFFSET -4.9141 -1.269 0.3592
                    CHANNELS 3 Zrotation Xrotation Yrotation
                    JOINT rPinky2
                    {
                      OFFSET -3.1477 -1.685 0.8462
                      CHANNELS 3 Zrotation Xrotation Yrotation
                      JOINT rPinky2_End
                      {
                        OFFSET -0.8055 -1.585 0.7955
                        CHANNELS 3 Zrotation Xrotation Yrotation
                        End Site
                        {
                          OFFSET -0.0081 -0.0158 0.008
                        }
                      }
                    }
                  }
                }
              }
            }
          }
        }
      }
    }
  }
  JOINT lThigh
  {
    OFFSET 8.367 -8.2066 0.5982
    CHANNELS 3 Zrotation Xrotation Yrotation
    JOINT lShin
    {
      OFFSET 2.1923 -43.463 -0.4932
      CHANNELS 3 Zrotation Xrotation Yrotation
      JOINT lFoot
      {
        OFFSET 0.7333 -45.8593 -2.6451
        CHANNELS 3 Zrotation Xrotation Yrotation
        End Site
        {
          OFFSET 2.6618 -4.2699 12.3931
        }
      }
    }
  }
  JOINT rThigh
  {
    OFFSET -8.367 -8.2066 0.5982
    CHANNELS 3 Zrotation Xrotation Yrotation
    JOINT rShin
    {
      OFFSET -2.1923 -43.463 -0.4931
      CHANNELS 3 Zrotation Xrotation Yrotation
      JOINT rFoot
      {
        OFFSET -0.7333 -45.8593 -2.6451
        CHANNELS 3 Zrotation Xrotation Yrotation
        End Site
        {
          OFFSET -2.6618 -4.2699 12.3931
        }
      }
    }
  }
}
MOTION
Frames:	4
Frame Time:	0.0333333
0 91.7903 2.51682 0 0 -0 0 0 -0 0 0 -0 0 0 -0 0 0 -0 0 0 -0 0 0 -0 1.66051 0.0835086 5.75766 -0.0175111 0.895433 15.7816 7.95139e-016 -1.98785e-016 -0 5.46658e-016 -3.97569e-016 -0 5.96354e-016 0 -0 3.97569e-016 1.98785e-016 9.54166e-015 1.49089e-016 -3.97569e-016 -0 6.4605e-016 0 3.18055e-015 5.96354e-016 0 3.18055e-015 8.94531e-016 -1.98785e-016 6.36111e-015 6.4605e-016 0 3.18055e-015 5.96354e-016 0 3.18055e-015 8.94531e-016 -1.98785e-016 6.36111e-015 1.49089e-016 -3.97569e-016 -0 6.4605e-016 0 3.18055e-015 5.96354e-016 0 3.18055e-015 8.94531e-016 -1.98785e-016 6.36111e-015 6.4605e-016 0 3.18055e-015 5.96354e-016 0 3.18055e-015 8.94531e-016 -1.98785e-016 6.36111e-015 0 0 -0 -1.4496 0.0636048 -5.0245 -1.74811 1.20616 -16.8394 -1.19271e-015 1.98785e-016 -3.18055e-015 -3.97569e-016 1.98785e-016 -3.18055e-015 -2.98177e-016 1.98785e-016 -3.18055e-015 -2.98177e-016 3.97569e-016 -0 4.96962e-016 0 -6.36111e-015 -9.93923e-017 3.97569e-016 -0 -8.94531e-016 5.96354e-016 -0 -3.97569e-016 3.97569e-016 -0 -9.93923e-017 3.97569e-016 -0 -8.94531e-016 5.96354e-016 -0 -3.97569e-016 3.97569e-016 -0 4.96962e-016 0 -6.36111e-015 -9.93923e-017 3.97569e-016 -0 -8.94531e-016 5.96354e-016 -0 -3.97569e-016 3.97569e-016 -0 -9.93923e-017 3.97569e-016 -0 -8.94531e-016 5.96354e-016 -0 -3.97569e-016 3.97569e-016 -0 -4.66111 -0.998717 0.12318 0.00986924 1.54847 0.176523 4.65186 -0.572283 -0.254274 4.66111 -0.998765 -0.123176 -0.00986867 1.54869 -0.176537 -4.65186 -0.572453 0.25427 
10.9761 40.0613 25.92 -47.0143 -3.16381 92.9312 0.0904863 -2.98158 0.00810004 0.181774 -5.9631 0.0209423 0.181777 -5.96311 0.020935 6.67413e-006 -5.39555 7.12784e-007 -8.298e-006 11.6052 1.18648e-005 0.512466 -19.9942 6.50582 -27.6733 0.42649 -14.9595 26.0321 7.74335 -46.0096 -21.7384 -29.0108 9.24799 1.40119e-006 -8.10908e-007 -4.0733e-007 2.2063e-007 3.61328e-006 1.1254e-006 2.79487e-006 2.61671e-006 -5.70133e-006 -0 0 6.36111e-015 1.40119e-006 -8.10908e-007 -4.0733e-007 2.2063e-007 3.61328e-006 1.1254e-006 2.79487e-006 2.61671e-006 -5.70133e-006 1.40119e-006 -8.10908e-007 -4.0733e-007 2.2063e-007 3.61328e-006 1.1254e-006 2.79487e-006 2.61671e-006 -5.70133e-006 -0 0 6.36111e-015 1.40119e-006 -8.10908e-007 -4.0733e-007 2.2063e-007 3.61328e-006 1.1254e-006 2.79487e-006 2.61671e-006 -5.70133e-006 1.40119e-006 -8.10908e-007 -4.0733e-007 2.2063e-007 3.61328e-006 1.1254e-006 2.79487e-006 2.61671e-006 -5.70133e-006 -6.74043 -2.09139 -22.4676 29.8879 6.06994 19.1419 1.01269 -7.31105 52.8247 -14.8378 -14.3815 -16.728 7.1845e-007 4.25767e-007 -1.65437e-007 -6.36111e-015 1.59028e-015 6.36111e-015 -3.18055e-015 -1.59028e-015 6.36111e-015 3.18055e-015 -3.18055e-015 -0 7.1845e-007 4.25767e-007 -1.65437e-007 -3.18055e-015 -3.18055e-015 1.27222e-014 -3.18055e-015 0 -0 7.1845e-007 4.25767e-007 -1.65437e-007 -3.18055e-015 -3.18055e-015 1.27222e-014 -3.18055e-015 0 -0 3.18055e-015 -3.18055e-015 -0 7.1845e-007 4.25767e-007 -1.65437e-007 -3.18055e-015 -3.18055e-015 1.27222e-014 -3.18055e-015 0 -0 7.1845e-007 4.25767e-007 -1.65437e-007 -3.18055e-015 -3.18055e-015 1.27222e-014 -3.18055e-015 0 -0 -0.784024 -2.23308 1.99294 1.03568 39.0102 -0.80842 9.80501 26.888 -0.857722 2.14822 -3.4008 -2.8458 -3.7737 55.4999 2.70206 -6.82996 14.9727 0.909369 
1.02321 -5.32892 39.9226 -63.9767 -82.199 115.573 0.158736 -5.45625 0.0462345 0.32414 -10.9123 0.108475 0.324141 -10.9123 0.108479 6.14237e-005 -9.70631 1.24275e-005 2.59114e-007 21.2005 9.3384e-007 5.18744 -36.1246 13.943 -51.815 0.490008 -32.2358 47.397 -19.4171 -87.483 -28.7209 -54.7601 20.0497 -3.18055e-015 3.97569e-015 -3.18055e-015 -3.18055e-015 1.35174e-014 -3.18055e-015 -6.36111e-015 7.95139e-015 -0 -3.18055e-015 -2.38542e-015 -0 3.18055e-015 9.54166e-015 -9.54166e-015 2.64834e-031 2.38542e-015 -6.36111e-015 5.29669e-031 4.77083e-015 -6.36111e-015 3.18055e-015 9.54166e-015 -9.54166e-015 2.64834e-031 2.38542e-015 -6.36111e-015 5.29669e-031 4.77083e-015 -6.36111e-015 -3.18055e-015 -2.38542e-015 -0 3.18055e-015 9.54166e-015 -9.54166e-015 2.64834e-031 2.38542e-015 -6.36111e-015 5.29669e-031 4.77083e-015 -6.36111e-015 3.18055e-015 9.54166e-015 -9.54166e-015 2.64834e-031 2.38542e-015 -6.36111e-015 5.29669e-031 4.77083e-015 -6.36111e-015 -13.5325 -3.19018 -41.2653 52.3489 8.55564 39.6546 0.278351 11.8649 107.447 -31.9794 -25.8386 -33.1693 -2.38542e-015 -6.36111e-015 -0 -7.95139e-016 -4.37326e-015 -0 3.97252e-031 -2.38542e-015 9.54166e-015 -2.38542e-015 -5.1684e-015 -0 2.38542e-015 4.77083e-015 6.36111e-015 -6.36111e-015 -3.57812e-015 -3.18055e-015 -3.97569e-015 7.95139e-016 -3.18055e-015 2.38542e-015 4.77083e-015 6.36111e-015 -6.36111e-015 -3.57812e-015 -3.18055e-015 -3.97569e-015 7.95139e-016 -3.18055e-015 -2.38542e-015 -5.1684e-015 -0 2.38542e-015 4.77083e-015 6.36111e-015 -6.36111e-015 -3.57812e-015 -3.18055e-015 -3.97569e-015 7.95139e-016 -3.18055e-015 2.38542e-015 4.77083e-015 6.36111e-015 -6.36111e-015 -3.57812e-015 -3.18055e-015 -3.97569e-015 7.95139e-016 -3.18055e-015 2.59959 -4.67625 3.9444 10.0214 71.5165 -8.29241 14.8267 49.6223 -2.07949 -0.00137136 -7.25109 -6.72602 -156.94 77.5022 152.224 -8.84405 28.9182 1.19019 
-1.7503 -15.9529 47.0696 117.689 -75.788 -63.3064 0.17395 -6.0227 0.0597497 0.357251 -12.0452 0.139166 0.357247 -12.0452 0.139168 -0.000147699 -9.93495 -1.35747e-005 5.74118e-007 23.2283 -1.12e-006 7.43783 -40.2152 16.5505 -57.8306 0.455464 -36.5627 49.1783 -29.4868 -96.0592 -27.084 -61.2267 25.1172 0 4.96962e-017 -0 -2.3805e-007 -6.41757e-007 1.62491e-006 4.57205e-015 -2.5345e-015 -0 -1.59028e-015 2.48481e-016 3.18055e-015 5.96354e-016 3.926e-015 1.27222e-014 -2.3805e-007 -6.41757e-007 1.62491e-006 7.95139e-016 2.28602e-015 -0 5.96354e-016 3.926e-015 1.27222e-014 -2.3805e-007 -6.41757e-007 1.62491e-006 7.95139e-016 2.28602e-015 -0 -1.59028e-015 2.48481e-016 3.18055e-015 5.96354e-016 3.926e-015 1.27222e-014 -2.3805e-007 -6.41757e-007 1.62491e-006 7.95139e-016 2.28602e-015 -0 5.96354e-016 3.926e-015 1.27222e-014 -2.3805e-007 -6.41757e-007 1.62491e-006 7.95139e-016 2.28602e-015 -0 -15.4787 -3.57544 -46.0463 57.63 8.59779 44.7976 -4.28022 18.6038 120.864 -37.21 -28.4153 -37.9934 -3.53113e-031 -3.18055e-015 -6.36111e-015 3.18055e-015 -1.11319e-014 -6.36111e-015 6.36111e-015 -3.18055e-015 -3.18055e-015 5.29669e-031 4.77083e-015 -6.36111e-015 3.18055e-015 -1.27222e-014 -0 3.18055e-015 0 3.18055e-015 -3.18055e-015 0 -0 3.18055e-015 -1.27222e-014 -0 3.18055e-015 0 3.18055e-015 -3.18055e-015 0 -0 5.29669e-031 4.77083e-015 -6.36111e-015 3.18055e-015 -1.27222e-014 -0 3.18055e-015 0 3.18055e-015 -3.18055e-015 0 -0 3.18055e-015 -1.27222e-014 -0 3.18055e-015 0 3.18055e-015 -3.18055e-015 0 -0 3.48679 -5.41248 4.53005 21.6245 79.4853 -19.3178 16.2807 55.2265 -2.58735 -0.604592 -8.66094 -8.37003 -166.876 66.4469 160.604 -9.32695 32.9237 1.07181 
